#N canvas -9 -9 1920 976 12;
#X obj 364 -39 soundfiler;
#X obj 364 47 expr 44100/$f1;
#X obj 197 356 phasor~;
#X obj 359 196 hsl 128 15 0 4 0 0 empty empty empty -2 -8 0 10 -262144
-1 -1 0 1;
#X obj 197 397 *~;
#X obj 195 856 dac~;
#N canvas 0 50 450 250 (subpatch) 0;
#X array soundData_2 22088 float 4;
#X coords 0 1 22087 -1 200 140 1;
#X restore 639 126 graph;
#X floatatom 404 -10 10 0 0 0 - - -;
#X floatatom 364 80 10 0 0 0 - - -;
#X floatatom 356 219 5 0 0 0 - - -;
#X msg 270 337 0;
#X msg 317 337 0.5;
#X obj 198 819 *~;
#X obj 401 688 vsl 30 128 0 1 0 0 empty empty empty 0 -9 0 10 -262144
-1 -1 0 1;
#X text 438 734 Volume slider;
#X msg 89 337 0;
#X msg 139 337 1;
#X obj 88 300 t b b;
#X obj 88 199 bng 15 250 50 0 empty empty empty 17 7 0 10 -262144 -1
-1;
#X obj 87 155 bng 15 250 50 0 empty empty empty 17 7 0 10 -262144 -1
-1;
#X obj 361 416 snapshot~;
#X floatatom 361 442 10 0 0 0 - - -;
#X obj 360 466 /;
#X floatatom 360 496 5 0 0 0 - - -;
#X obj 360 361 tgl 15 0 empty empty empty 17 7 0 10 -262144 -1 -1 0
1;
#X obj 641 277 hsl 200 15 0 1 0 0 empty empty empty -2 -8 0 10 -262144
-1 -1 0 1;
#X obj 511 612 sel 1;
#X text 358 599 PREVENT LOOP;
#X obj 360 559 expr $f1 \; if ($f1 >= 0.9 \, 1 \, 0);
#X obj 361 386 metro 10;
#X text 359 342 NOT LOOPÏNG;
#X floatatom 401 646 5 0 1 0 - - -;
#X text 361 -218 READ FILE HERE;
#X obj 196 -186 inlet;
#X msg 364 -135 Big_Pillow_Shacking.wav;
#X obj 364 -103 pack s \$0;
#X obj 364 153 *;
#X obj 320 249 list;
#X obj 319 283 route 0 1;
#X msg 198 312 \$1;
#X text 33 159 STOP;
#X text 30 118 START;
#X obj 29 135 inlet;
#X obj 29 179 inlet;
#X msg -45 214 0;
#X obj -77 240 bng 15 250 50 0 empty empty empty 17 7 0 10 -262144
-1 -1;
#X msg -129 171 1;
#X text 200 -206 File & pitch & volume;
#X msg 144 -143 \$1;
#X msg 202 -143 \$2;
#X msg 258 -143 \$3;
#X floatatom 414 128 5 0 0 0 - - -;
#X obj 136 -91 print 1:;
#X obj 206 -90 print 2:;
#X obj 276 -88 print 3:;
#X obj 270 197 delay 10;
#X msg 364 -75 read -resize \$1 soundData_2;
#X obj 197 729 tabread4~ soundData_2;
#X obj 404 17 s sampleSize_2;
#X obj 271 219 v playing_2;
#X obj 223 378 r sampleSize_2;
#X obj 446 445 r sampleSize_2;
#X obj -45 298 print playing_2:;
#X obj -45 255 v playing_2;
#X obj -129 211 v playing_2;
#X connect 0 0 7 0;
#X connect 0 0 1 0;
#X connect 1 0 8 0;
#X connect 2 0 4 0;
#X connect 3 0 9 0;
#X connect 4 0 20 0;
#X connect 4 0 57 0;
#X connect 7 0 58 0;
#X connect 8 0 36 0;
#X connect 9 0 37 1;
#X connect 10 0 2 1;
#X connect 11 0 2 1;
#X connect 12 0 5 0;
#X connect 12 0 5 1;
#X connect 13 0 12 1;
#X connect 15 0 2 0;
#X connect 16 0 2 0;
#X connect 17 0 10 0;
#X connect 17 1 15 0;
#X connect 18 0 17 0;
#X connect 18 0 44 0;
#X connect 19 0 46 0;
#X connect 19 0 29 0;
#X connect 19 0 35 0;
#X connect 19 0 55 0;
#X connect 20 0 21 0;
#X connect 21 0 22 0;
#X connect 22 0 23 0;
#X connect 23 0 25 0;
#X connect 23 0 28 0;
#X connect 24 0 29 0;
#X connect 26 0 18 0;
#X connect 28 1 26 0;
#X connect 29 0 20 0;
#X connect 31 0 13 0;
#X connect 33 0 48 0;
#X connect 33 0 49 0;
#X connect 33 0 50 0;
#X connect 34 0 35 0;
#X connect 35 0 56 0;
#X connect 36 0 3 0;
#X connect 37 0 38 0;
#X connect 38 1 39 0;
#X connect 39 0 2 0;
#X connect 42 0 19 0;
#X connect 43 0 18 0;
#X connect 44 0 63 0;
#X connect 45 0 63 0;
#X connect 46 0 64 0;
#X connect 48 0 35 0;
#X connect 49 0 13 0;
#X connect 50 0 51 0;
#X connect 51 0 36 1;
#X connect 55 0 59 0;
#X connect 56 0 0 0;
#X connect 57 0 12 0;
#X connect 59 0 37 0;
#X connect 60 0 4 1;
#X connect 61 0 22 1;
#X connect 63 0 62 0;
