#N canvas 880 84 958 910 12;
#X obj 364 -39 soundfiler;
#X obj 364 47 expr 44100/$f1;
#X obj 197 356 phasor~;
#X obj 359 196 hsl 128 15 0 4 0 0 empty empty empty -2 -8 0 10 -262144
-1 -1 6339 1;
#X obj 197 397 *~;
#X obj 197 729 tabread4~ soundData;
#X obj 195 856 dac~;
#N canvas 0 50 450 250 (subpatch) 0;
#X array soundData 22088 float 4;
#X coords 0 1 22087 -1 200 140 1;
#X restore 639 126 graph;
#X floatatom 404 -10 10 0 0 0 - - -;
#X obj 404 17 s sampleSize;
#X floatatom 364 80 10 0 0 0 - - -;
#X text 503 113 Playback Speed;
#X floatatom 356 219 5 0 0 0 - - -;
#X msg 270 337 0;
#X msg 317 337 0.5;
#X obj 223 378 r sampleSize;
#X obj 198 819 *~;
#X obj 401 688 vsl 30 128 0 1 0 0 empty empty empty 0 -9 0 10 -262144
-1 -1 12700 1;
#X text 438 734 Volume slider;
#X msg 89 337 0;
#X msg 139 337 1;
#X obj 88 300 t b b;
#X obj 88 199 bng 15 250 50 0 empty empty empty 17 7 0 10 -262144 -1
-1;
#X text 33 159 STOP;
#X obj 87 155 bng 15 250 50 0 empty empty empty 17 7 0 10 -262144 -1
-1;
#X text 30 118 START;
#X obj 361 415 snapshot~;
#X floatatom 361 441 10 0 0 0 - - -;
#X obj 360 465 /;
#X floatatom 360 495 5 0 0 0 - - -;
#X obj 446 445 r sampleSize;
#X obj 360 360 tgl 15 0 empty empty empty 17 7 0 10 -262144 -1 -1 0
1;
#X obj 641 277 hsl 200 15 0 1 0 0 empty empty empty -2 -8 0 10 -262144
-1 -1 0 1;
#X obj 511 612 sel 1;
#X text 358 599 PREVENT LOOP;
#X obj 360 559 expr $f1 \; if ($f1 >= 0.9 \, 1 \, 0);
#X obj 361 385 metro 10;
#X text 359 341 NOT LOOPÏNG;
#X floatatom 401 646 5 0 1 0 - - -;
#X text 361 -218 READ FILE HERE;
#X obj 29 135 inlet;
#X obj 29 179 inlet;
#X obj 35 -123 inlet;
#X msg 364 -135 Big_Pillow_Shacking.wav;
#X obj 364 -103 pack s \$0;
#X msg 364 -75 read -resize \$1 soundData;
#X text 39 -143 File;
#X obj 482 666 inlet;
#X text 530 668 VOLUME;
#X obj 510 133 inlet;
#X obj 364 153 *;
#X obj -45 255 v playing;
#X msg -45 214 0;
#X obj 279 219 v playing;
#X obj -45 298 print playing:;
#X obj -77 240 bng 15 250 50 0 empty empty empty 17 7 0 10 -262144
-1 -1;
#X msg -45 170 1;
#X obj 320 249 list;
#X obj 319 283 route 0 1;
#X msg 198 312 \$1;
#X connect 0 0 8 0;
#X connect 0 0 1 0;
#X connect 1 0 10 0;
#X connect 2 0 4 0;
#X connect 3 0 12 0;
#X connect 4 0 5 0;
#X connect 4 0 26 0;
#X connect 5 0 16 0;
#X connect 8 0 9 0;
#X connect 10 0 50 0;
#X connect 12 0 57 1;
#X connect 13 0 2 1;
#X connect 14 0 2 1;
#X connect 15 0 4 1;
#X connect 16 0 6 0;
#X connect 16 0 6 1;
#X connect 17 0 16 1;
#X connect 19 0 2 0;
#X connect 20 0 2 0;
#X connect 21 0 13 0;
#X connect 21 1 19 0;
#X connect 22 0 21 0;
#X connect 22 0 52 0;
#X connect 24 0 56 0;
#X connect 24 0 53 0;
#X connect 24 0 44 0;
#X connect 24 0 36 0;
#X connect 26 0 27 0;
#X connect 27 0 28 0;
#X connect 28 0 29 0;
#X connect 29 0 32 0;
#X connect 29 0 35 0;
#X connect 30 0 28 1;
#X connect 33 0 22 0;
#X connect 35 1 33 0;
#X connect 36 0 26 0;
#X connect 38 0 17 0;
#X connect 40 0 24 0;
#X connect 41 0 22 0;
#X connect 42 0 44 0;
#X connect 43 0 44 0;
#X connect 44 0 45 0;
#X connect 45 0 0 0;
#X connect 47 0 17 0;
#X connect 49 0 50 1;
#X connect 50 0 3 0;
#X connect 51 0 54 0;
#X connect 52 0 51 0;
#X connect 53 0 57 0;
#X connect 55 0 51 0;
#X connect 56 0 51 0;
#X connect 57 0 58 0;
#X connect 58 1 59 0;
#X connect 59 0 2 0;
